<mxfile host="app.diagrams.net" modified="2023-06-01T15:04:05.659Z" agent="Mozilla/5.0 (Windows NT 10.0; Win64; x64) AppleWebKit/537.36 (KHTML, like Gecko) Chrome/113.0.0.0 Safari/537.36" etag="5AGEyFYlsEBGULJeTupf" version="21.1.1" type="device">
  <diagram id="CxEsDRJrk70qt43Qamd-" name="第 1 页">
    <mxGraphModel dx="2261" dy="788" grid="1" gridSize="10" guides="1" tooltips="1" connect="1" arrows="1" fold="1" page="1" pageScale="1" pageWidth="827" pageHeight="1169" math="0" shadow="0">
      <root>
        <mxCell id="0" />
        <mxCell id="1" parent="0" />
        <mxCell id="-6JE7OrxqMrLVP6x-fKF-1" value="首頁" style="rounded=1;whiteSpace=wrap;html=1;" parent="1" vertex="1">
          <mxGeometry x="354" y="130" width="120" height="60" as="geometry" />
        </mxCell>
        <mxCell id="-6JE7OrxqMrLVP6x-fKF-23" style="edgeStyle=orthogonalEdgeStyle;rounded=0;orthogonalLoop=1;jettySize=auto;html=1;exitX=1;exitY=1;exitDx=0;exitDy=0;entryX=0.25;entryY=0;entryDx=0;entryDy=0;fontSize=12;" parent="1" source="-6JE7OrxqMrLVP6x-fKF-2" target="-6JE7OrxqMrLVP6x-fKF-22" edge="1">
          <mxGeometry relative="1" as="geometry" />
        </mxCell>
        <mxCell id="-6JE7OrxqMrLVP6x-fKF-2" value="登入" style="rounded=1;whiteSpace=wrap;html=1;" parent="1" vertex="1">
          <mxGeometry x="220" y="240" width="120" height="60" as="geometry" />
        </mxCell>
        <mxCell id="-6JE7OrxqMrLVP6x-fKF-38" style="edgeStyle=orthogonalEdgeStyle;rounded=0;orthogonalLoop=1;jettySize=auto;html=1;exitX=0.5;exitY=1;exitDx=0;exitDy=0;entryX=0.5;entryY=0;entryDx=0;entryDy=0;fontSize=12;" parent="1" source="-6JE7OrxqMrLVP6x-fKF-3" target="-6JE7OrxqMrLVP6x-fKF-36" edge="1">
          <mxGeometry relative="1" as="geometry">
            <Array as="points">
              <mxPoint x="950" y="270" />
              <mxPoint x="950" y="690" />
              <mxPoint x="330" y="690" />
            </Array>
          </mxGeometry>
        </mxCell>
        <mxCell id="-6JE7OrxqMrLVP6x-fKF-3" value="商品瀏覽" style="rounded=1;whiteSpace=wrap;html=1;" parent="1" vertex="1">
          <mxGeometry x="500" y="210" width="120" height="60" as="geometry" />
        </mxCell>
        <mxCell id="-6JE7OrxqMrLVP6x-fKF-6" value="判斷為管理員帳號" style="text;html=1;align=center;verticalAlign=middle;resizable=0;points=[];autosize=1;strokeColor=none;fillColor=none;" parent="1" vertex="1">
          <mxGeometry x="110" y="350" width="120" height="30" as="geometry" />
        </mxCell>
        <mxCell id="-6JE7OrxqMrLVP6x-fKF-7" value="註冊" style="rounded=1;whiteSpace=wrap;html=1;" parent="1" vertex="1">
          <mxGeometry x="80" y="240" width="120" height="60" as="geometry" />
        </mxCell>
        <mxCell id="-6JE7OrxqMrLVP6x-fKF-9" value="需登入才可進入的頁面" style="swimlane;whiteSpace=wrap;html=1;" parent="1" vertex="1">
          <mxGeometry x="-110" y="400" width="1000" height="430" as="geometry" />
        </mxCell>
        <mxCell id="-6JE7OrxqMrLVP6x-fKF-32" style="edgeStyle=orthogonalEdgeStyle;rounded=0;orthogonalLoop=1;jettySize=auto;html=1;exitX=1;exitY=1;exitDx=0;exitDy=0;fontSize=12;" parent="-6JE7OrxqMrLVP6x-fKF-9" source="-6JE7OrxqMrLVP6x-fKF-4" target="-6JE7OrxqMrLVP6x-fKF-31" edge="1">
          <mxGeometry relative="1" as="geometry" />
        </mxCell>
        <mxCell id="-6JE7OrxqMrLVP6x-fKF-4" value="管理頁面" style="rounded=1;whiteSpace=wrap;html=1;" parent="-6JE7OrxqMrLVP6x-fKF-9" vertex="1">
          <mxGeometry x="20" y="50" width="120" height="60" as="geometry" />
        </mxCell>
        <mxCell id="-6JE7OrxqMrLVP6x-fKF-37" style="edgeStyle=orthogonalEdgeStyle;rounded=0;orthogonalLoop=1;jettySize=auto;html=1;exitX=0;exitY=1;exitDx=0;exitDy=0;entryX=0;entryY=0;entryDx=0;entryDy=0;fontSize=12;" parent="-6JE7OrxqMrLVP6x-fKF-9" source="-6JE7OrxqMrLVP6x-fKF-17" target="-6JE7OrxqMrLVP6x-fKF-36" edge="1">
          <mxGeometry relative="1" as="geometry" />
        </mxCell>
        <mxCell id="-6JE7OrxqMrLVP6x-fKF-17" value="商品數據頁面&lt;br&gt;(顯示訂購數據)" style="rounded=1;whiteSpace=wrap;html=1;fontSize=12;" parent="-6JE7OrxqMrLVP6x-fKF-9" vertex="1">
          <mxGeometry x="20" y="165" width="120" height="60" as="geometry" />
        </mxCell>
        <mxCell id="-6JE7OrxqMrLVP6x-fKF-18" value="" style="endArrow=classic;html=1;rounded=0;fontSize=12;exitX=0.75;exitY=1;exitDx=0;exitDy=0;entryX=0.75;entryY=0;entryDx=0;entryDy=0;" parent="-6JE7OrxqMrLVP6x-fKF-9" source="-6JE7OrxqMrLVP6x-fKF-4" target="-6JE7OrxqMrLVP6x-fKF-17" edge="1">
          <mxGeometry width="50" height="50" relative="1" as="geometry">
            <mxPoint x="110" y="160" as="sourcePoint" />
            <mxPoint x="160" y="110" as="targetPoint" />
          </mxGeometry>
        </mxCell>
        <mxCell id="-6JE7OrxqMrLVP6x-fKF-19" value="確認訂單" style="rounded=1;whiteSpace=wrap;html=1;fontSize=12;" parent="-6JE7OrxqMrLVP6x-fKF-9" vertex="1">
          <mxGeometry x="190" y="50" width="120" height="60" as="geometry" />
        </mxCell>
        <mxCell id="-6JE7OrxqMrLVP6x-fKF-20" value="" style="endArrow=classic;html=1;rounded=0;fontSize=12;exitX=1;exitY=0.25;exitDx=0;exitDy=0;entryX=0;entryY=0.25;entryDx=0;entryDy=0;" parent="-6JE7OrxqMrLVP6x-fKF-9" source="-6JE7OrxqMrLVP6x-fKF-4" target="-6JE7OrxqMrLVP6x-fKF-19" edge="1">
          <mxGeometry width="50" height="50" relative="1" as="geometry">
            <mxPoint x="170" y="190" as="sourcePoint" />
            <mxPoint x="220" y="140" as="targetPoint" />
          </mxGeometry>
        </mxCell>
        <mxCell id="-6JE7OrxqMrLVP6x-fKF-28" style="edgeStyle=orthogonalEdgeStyle;rounded=0;orthogonalLoop=1;jettySize=auto;html=1;exitX=0.5;exitY=1;exitDx=0;exitDy=0;fontSize=12;" parent="-6JE7OrxqMrLVP6x-fKF-9" source="-6JE7OrxqMrLVP6x-fKF-22" target="-6JE7OrxqMrLVP6x-fKF-27" edge="1">
          <mxGeometry relative="1" as="geometry" />
        </mxCell>
        <mxCell id="-6JE7OrxqMrLVP6x-fKF-22" value="會員中心" style="rounded=1;whiteSpace=wrap;html=1;fontSize=12;" parent="-6JE7OrxqMrLVP6x-fKF-9" vertex="1">
          <mxGeometry x="380" y="50" width="120" height="60" as="geometry" />
        </mxCell>
        <mxCell id="-6JE7OrxqMrLVP6x-fKF-25" value="訂購介面" style="rounded=1;whiteSpace=wrap;html=1;fontSize=12;" parent="-6JE7OrxqMrLVP6x-fKF-9" vertex="1">
          <mxGeometry x="710" y="50" width="120" height="60" as="geometry" />
        </mxCell>
        <mxCell id="-6JE7OrxqMrLVP6x-fKF-27" value="確認訂單" style="rounded=1;whiteSpace=wrap;html=1;fontSize=12;" parent="-6JE7OrxqMrLVP6x-fKF-9" vertex="1">
          <mxGeometry x="380" y="170" width="120" height="60" as="geometry" />
        </mxCell>
        <mxCell id="-6JE7OrxqMrLVP6x-fKF-29" value="因為沒做金流的部分&lt;br&gt;交易的部分就放到會員中心&lt;br&gt;在確認訂單的地方&lt;br&gt;上傳匯款之類的付款證明&lt;br&gt;再由管理員手動確認" style="text;html=1;align=left;verticalAlign=middle;resizable=0;points=[];autosize=1;strokeColor=none;fillColor=none;fontSize=12;" parent="-6JE7OrxqMrLVP6x-fKF-9" vertex="1">
          <mxGeometry x="830" y="35" width="170" height="90" as="geometry" />
        </mxCell>
        <mxCell id="-6JE7OrxqMrLVP6x-fKF-30" value="其中會包括顯示每種商品&lt;br&gt;訂購數量" style="text;html=1;align=center;verticalAlign=middle;resizable=0;points=[];autosize=1;strokeColor=none;fillColor=none;fontSize=12;" parent="-6JE7OrxqMrLVP6x-fKF-9" vertex="1">
          <mxGeometry x="20" y="225" width="160" height="40" as="geometry" />
        </mxCell>
        <mxCell id="-6JE7OrxqMrLVP6x-fKF-31" value="訂單出貨" style="rounded=1;whiteSpace=wrap;html=1;fontSize=12;" parent="-6JE7OrxqMrLVP6x-fKF-9" vertex="1">
          <mxGeometry x="190" y="165" width="120" height="60" as="geometry" />
        </mxCell>
        <mxCell id="-6JE7OrxqMrLVP6x-fKF-34" value="此地方會要求使用者上傳其付款證明" style="text;html=1;align=center;verticalAlign=middle;resizable=0;points=[];autosize=1;strokeColor=none;fillColor=none;fontSize=12;" parent="-6JE7OrxqMrLVP6x-fKF-9" vertex="1">
          <mxGeometry x="370" y="230" width="220" height="30" as="geometry" />
        </mxCell>
        <mxCell id="-6JE7OrxqMrLVP6x-fKF-35" value="此介面可以看到歷史訂購&lt;br&gt;以及訂單出貨狀況" style="text;html=1;align=left;verticalAlign=middle;resizable=0;points=[];autosize=1;strokeColor=none;fillColor=none;fontSize=12;" parent="-6JE7OrxqMrLVP6x-fKF-9" vertex="1">
          <mxGeometry x="500" y="50" width="160" height="40" as="geometry" />
        </mxCell>
        <mxCell id="-6JE7OrxqMrLVP6x-fKF-36" value="修改商品資料&lt;br&gt;(包含新增修改刪除)" style="rounded=1;whiteSpace=wrap;html=1;fontSize=12;" parent="-6JE7OrxqMrLVP6x-fKF-9" vertex="1">
          <mxGeometry x="380" y="330" width="120" height="60" as="geometry" />
        </mxCell>
        <mxCell id="-6JE7OrxqMrLVP6x-fKF-5" style="edgeStyle=orthogonalEdgeStyle;rounded=0;orthogonalLoop=1;jettySize=auto;html=1;exitX=0;exitY=1;exitDx=0;exitDy=0;entryX=1;entryY=0;entryDx=0;entryDy=0;" parent="1" source="-6JE7OrxqMrLVP6x-fKF-2" target="-6JE7OrxqMrLVP6x-fKF-4" edge="1">
          <mxGeometry relative="1" as="geometry" />
        </mxCell>
        <mxCell id="-6JE7OrxqMrLVP6x-fKF-26" style="edgeStyle=orthogonalEdgeStyle;rounded=0;orthogonalLoop=1;jettySize=auto;html=1;exitX=0.5;exitY=1;exitDx=0;exitDy=0;fontSize=12;" parent="1" source="-6JE7OrxqMrLVP6x-fKF-10" target="-6JE7OrxqMrLVP6x-fKF-25" edge="1">
          <mxGeometry relative="1" as="geometry" />
        </mxCell>
        <mxCell id="-6JE7OrxqMrLVP6x-fKF-10" value="商品頁面" style="rounded=1;whiteSpace=wrap;html=1;" parent="1" vertex="1">
          <mxGeometry x="500" y="300" width="120" height="60" as="geometry" />
        </mxCell>
        <mxCell id="-6JE7OrxqMrLVP6x-fKF-11" value="&lt;font style=&quot;font-size: 36px;&quot;&gt;商品代購網站&lt;br&gt;&lt;/font&gt;" style="text;html=1;align=center;verticalAlign=middle;resizable=0;points=[];autosize=1;strokeColor=none;fillColor=none;" parent="1" vertex="1">
          <mxGeometry x="175" y="50" width="240" height="60" as="geometry" />
        </mxCell>
        <mxCell id="-6JE7OrxqMrLVP6x-fKF-15" value="當登入者為管理員時要有可對該商品修改的介面" style="text;html=1;align=center;verticalAlign=middle;resizable=0;points=[];autosize=1;strokeColor=none;fillColor=none;fontSize=12;" parent="1" vertex="1">
          <mxGeometry x="610" y="210" width="280" height="30" as="geometry" />
        </mxCell>
        <mxCell id="-6JE7OrxqMrLVP6x-fKF-24" value="一般使用者登入" style="text;html=1;align=center;verticalAlign=middle;resizable=0;points=[];autosize=1;strokeColor=none;fillColor=none;fontSize=12;" parent="1" vertex="1">
          <mxGeometry x="330" y="315" width="110" height="30" as="geometry" />
        </mxCell>
        <mxCell id="-6JE7OrxqMrLVP6x-fKF-40" value="" style="endArrow=none;html=1;rounded=0;fontSize=12;exitX=1;exitY=0.5;exitDx=0;exitDy=0;" parent="1" source="-6JE7OrxqMrLVP6x-fKF-10" edge="1">
          <mxGeometry width="50" height="50" relative="1" as="geometry">
            <mxPoint x="650" y="360" as="sourcePoint" />
            <mxPoint x="950" y="330" as="targetPoint" />
          </mxGeometry>
        </mxCell>
      </root>
    </mxGraphModel>
  </diagram>
</mxfile>
